<svg id="fi_17402723" height="64" viewBox="0 0 16.933333 16.933334" width="64" xmlns="http://www.w3.org/2000/svg" xmlns:svg="http://www.w3.org/2000/svg"><g id="layer1" transform="translate(0 -280.067)"><path id="rect5490" d="m8.2020833 280.33123v.27541c-.008.36067.5371499.36067.52915 0v-.27541c.00201-.37963-.52876-.33557-.52915 0zm-1.5094299.71256.2656099.2656c.2495799.2705.6446401-.12619.3731001-.37462l-.2620002-.27232c-.33835-.24063-.5868401.17121-.3767098.38134zm3.1754199-.37307-.2655999.26405c-.26074.25004.1254599.63568.3751599.37462l.2655997-.25836c.25123-.30891-.15913-.61074-.3751597-.38031zm5.0682697 1.60339c.92085.64345 1.4686 1.69513 1.4686 2.82029 0 1.12515-.54775 2.17683-1.4686 2.82028-.30791.19833.0106.65433.30282.43353 1.06203-.7421 1.69545-1.95665 1.69545-3.25381 0-1.29717-.63342-2.51172-1.69545-3.25382-.36101-.21293-.56184.27158-.30282.43353zm-13.2396098-.43353c-1.06203.7421-1.69545 1.95665-1.69545 3.25382 0 1.29716.63342 2.51171 1.69545 3.25381.29327.22716.61686-.2369.3023-.43353-.92085-.64345-1.4686-1.69513-1.4686-2.82028 0-1.12516.55498-2.17167 1.47583-2.81512.29594-.27209-.0665-.6221-.30953-.4387zm3.8864701 1.92584c-.64976 1.41243-.17727 3.08041 1.08672 3.94571-.0361.0903-.0537.18579-.0537.28833l-.00101 1.63389s-.1062001-.046-.2645802-.046c-.44132-.001-.7926898.35757-.7926898.79265v1.5879c0 .69653.13979 1.25597.2754299 1.69692.0859.27918.1608701.50787.2072101.68776-.1269701.0222-.2195.13258-.2191002.26146v.79317c-.1461198.00059-.2640999.11949-.2635398.2656v1.05618c-.0008467.14632.1172199.26553.2635398.26612h5.2930499c.14632-.00058.264391-.1198.263549-.26612v-1.05618c.000556-.14611-.11743-.26501-.263549-.2656v-.79317c.000397-.12888-.0921-.2393-.219101-.26146.0463-.17988.121352-.40861.207222-.68776.13564-.44095.275429-1.00039.275429-1.69692v-1.5879c0-.43509-.343619-.79265-.79321-.79265-.10478 0-.20042.0162-.292479.0537-.0923-.33558-.4025508-.58132-.7658309-.58132-.1421199 0-.2736699.0313-.3897997.0978-.1411103-.22277-.3885502-.36343-.6690101-.36343-.1813499.003-.2656099.0501-.2656099.0501v-.5932c1.5362298.12913 2.9488406-.84608 3.3459406-2.38624.408735-1.58524-.481135-3.2238-2.0256452-3.76743-.38613-.13591-.7826899-.19244-1.1709827-.1777-1.1648129.044-2.2551029.73032-2.7682528 1.84579zm3.7635002-1.16779c1.2911495.45445 2.0163405 1.8723 1.6877005 3.13858-.337461 1.30024-1.5585505 2.14034-2.8803607 1.97802-.1154398-.29597-.39634-.50949-.7446399-.50742-.1376799.00082-.27423.0333-.38756.0961-1.0981299-.71124-1.5106201-2.11569-.9580499-3.31686.4289398-.93241 1.3348398-1.50304 2.3057299-1.53828.32364-.0118.65439.0362.9771801.14986zm-6.5389403.26353c-.73425.46923-1.21849 1.29388-1.21849 2.23018 0 .9247.4721 1.74061 1.1910999 2.21261.2989803.21876.6098202-.25272.29093-.44128-.5748699-.37738-.9528799-1.02643-.9528799-1.77133 0-.75424.3979-1.40755.9849199-1.7827.3104002-.28125-.0563-.6101-.2955799-.44748zm11.0351598.44748c.58702.37515.97408 1.02846.97408 1.7827 0 .7449-.37802 1.39395-.95289 1.77133-.31889.18855-.008.66004.29093.44128.719-.472 1.19162-1.2879 1.19162-2.21261 0-.9363-.48476-1.76095-1.21901-2.23018-.34777-.19636-.55677.29381-.28473.44748zm-5.3788298-.0723c-.14551.001-.26255.12009-.2619899.26559h-.31419c-.43053 0-.7420501.35128-.7420501.76372v.2656c.003.42705.32907.76165.7420501.76165h.3141901v.85518h-.3141901c-.1112901 0-.2129001-.0951-.2129001-.23459.008-.36067-.5371499-.36067-.52915 0 0 .41243.3129902.76079.7420501.76372h.3141901v.002c-.008.36066.53715.36066.52915 0v-.002h.31676c.4129899 0 .7420599-.34251.7420599-.76372v-.38651c.003-.41828-.3290599-.76372-.7420599-.76372h-.31676v-.7322h.31676c.1174898 0 .2128999.10541.2128999.23459 0 .36076.53716.36067.52916 0 .00201-.43516-.3290599-.76372-.7420599-.76372h-.31676c.0005556-.14752-.11963-.26702-.2671602-.26559zm-4.92565.46455c-.3846701.33877-.62733.83777-.62733 1.3905 0 .54985.2399498 1.04618.62113 1.38482.2640298.26164.6417598-.16156.3519099-.39426-.27231-.24193-.44337-.59367-.44337-.99057 0-.399.1773499-.7346.4521502-.97661.2662697-.35297-.1463101-.60553-.3544901-.41388zm9.5092098.39838c.2748.24201.4475.59311.4475.99211 0 .3969-.17106.74864-.44337.99056-.29594.23181.0872.66166.35139.39426.38118-.33864.62113-.83498.62113-1.38482 0-.55274-.23904-1.05794-.62371-1.39671-.35284-.24757-.57603.23243-.35294.4046zm-5.1597398-.0682h.3141901v.7322h-.31419c-.1072401 0-.2129001-.0925-.2129001-.23201v-.2656c0-.13951.10566-.23313.2129-.23459zm-3.5237.37309c-.2367699.13728-.39428.39629-.39428.68723 0 .29192.15832.55079.39634.68776.30626.17706.5718702-.28231.2656102-.45937-.0789-.0454-.1328002-.12705-.1328002-.22839 0-.101.0585-.17571.1369401-.22116.3304199-.29138-.0364-.61045-.2718101-.46607zm7.9413898.45884c.0809.0408.13074.12739.13074.22839 0 .10134-.0539.18299-.13281.22839-.30626.17569-.0427.63505.26354.45937.23802-.13697.39893-.39584.39893-.68776 0-.29094-.15803-.55099-.39479-.68828-.36901-.17388-.53611.32336-.26561.45989zm-3.5743496.42991h.31676c.11748 0 .2128999.10919.2128999.23408v.38651c0 .12783-.0954.23459-.2128999.23459h-.31676zm-1.3218501 2.44307c.1512001 0 .26665.12696.2656099.26353v3.17579c.00101.36198.52803.34968.5270902-.00001v-1.58582c-.003-.13555.1144098-.2656.2656099-.2656.15118 0 .2635401.12488.2635401.2656v1.58582c0 .3531.5296699.3531.5296699 0v-1.3223c0-.13934.1144-.26352.2655999-.26352.1511702 0 .2650101.12858.2635501.26352v.52706l.0005027.79422c.008.36377.52915.34724.52915 0 .001-.008-.000503-.79422-.000503-.79422 0-.13789.11444-.26353.26561-.26353.1512 0 .26354.12711.26354.26353v1.58791c0 .62597-.12272 1.12172-.25166 1.54087-.0963.31316-.2036.57831-.25165.83968h-3.7546997c-.0481-.26137-.15481-.52652-.2511401-.83968-.1289399-.41915-.2521699-.9149-.2521699-1.54087v-1.5879c0-.14173.11234-.26353.2635399-.26353.15118 0 .2656101.12282.2656101.26353v.5312.26404c0 .3531.5296599.3531.5296599 0v-3.17579c0-.14381.1123701-.26353.2635401-.26353zm-1.0365902 7.14165c1.4033972.001 2.8103943-.002 4.2120299.001v.52861h-4.2342398v-.52861c.007-.00003.014801-.00037.022201-.001zm-.2857598 1.05877h4.7613197v.52913h-4.7613197z" font-variant-ligatures="normal" font-variant-position="normal" font-variant-caps="normal" font-variant-numeric="normal" font-variant-alternates="normal" font-feature-settings="normal" text-indent="0" text-align="start" text-decoration-line="none" text-decoration-style="solid" text-decoration-color="rgb(0,0,0)" text-transform="none" text-orientation="mixed" white-space="normal" shape-padding="0" isolation="auto" mix-blend-mode="normal" solid-color="rgb(0,0,0)" solid-opacity="1" vector-effect="none" paint-order="markers stroke fill"></path></g></svg>